<svg xmlns="http://www.w3.org/2000/svg" xmlns:xlink="http://www.w3.org/1999/xlink" width="46.556" height="50.185" viewBox="0 0 46.556 50.185"><defs><style>.a{fill:url(#a);}.b{fill:#fff;}</style><linearGradient id="a" x1="0.5" x2="0.5" y2="1" gradientUnits="objectBoundingBox"><stop offset="0" stop-color="#1a5039"/><stop offset="1" stop-color="#ffc84d"/></linearGradient></defs><g transform="translate(-10788.491 18364.535)"><path class="a" d="M1.824,46.421c-2.3-4.877-2.189-12.2-.973-15.888,2.671-8.107,9.187-15.389,9.187-15.389H37.256s9.3,10.408,9.3,19.131c0,3.874-.382,10.089-2.495,12.93-2.479,3.332-6.8,2.835-6.8,2.835H10.038a8.918,8.918,0,0,1-1.68.146A6.81,6.81,0,0,1,1.824,46.421ZM11.4,11.31,5.166,5.044S8.274,1.421,11.672.37a11.881,11.881,0,0,1,7.086.47A8.116,8.116,0,0,0,23.34,2.722,10.669,10.669,0,0,0,28.413.84a13.208,13.208,0,0,1,7.066,0c3.468,1.112,6.805,4.449,6.805,4.449l-6.805,6.02Z" transform="translate(10788.491 -18364.535)"/><path class="b" d="M10818.09-18270.787c-.052.154-4.13,5.16-3.3,5.678s6.091-2.84,5.626-3.355S10818.09-18270.787,10818.09-18270.787Z" transform="translate(-15.331 -54.89)"/><path class="b" d="M3.464.607C3.413.761-.717,6.234.109,6.751S6.3,3.535,6.3,3.535,7.6,2.541,6.23.824A1.729,1.729,0,0,0,3.464.607Z" transform="translate(10822.933 -18336.281) rotate(180)"/><path class="b" d="M10826.83-18297.721s-4.686,6.273-3.376,8.418a2.538,2.538,0,0,0,3.376,1.07c.539.172.8-1.66.779-2.506s-.774-.875-.963-2.586A22.735,22.735,0,0,1,10826.83-18297.721Z" transform="translate(-20.335 -39.12)"/><path class="b" d="M.78,0S5.465,6.275,4.155,8.419A2.539,2.539,0,0,1,.78,9.49C.241,9.662-.022,7.828,0,6.983S.775,6.109.964,4.4A22.745,22.745,0,0,0,.78,0Z" transform="translate(10816.228 -18327.477) rotate(90)"/><path class="b" d="M10826.83-18297.721s-4.686,6.273-3.376,8.418a2.538,2.538,0,0,0,3.376,1.07c.539.172.8-1.66.779-2.506s-.774-.875-.963-2.586A22.735,22.735,0,0,1,10826.83-18297.721Z" transform="translate(-16.19 -43.265)"/><path class="b" d="M.78,0S5.465,6.275,4.155,8.419A2.539,2.539,0,0,1,.78,9.49C.241,9.662-.022,7.828,0,6.983S.775,6.109.964,4.4A22.745,22.745,0,0,0,.78,0Z" transform="translate(10820.373 -18331.621) rotate(90)"/><path class="b" d="M3.607,0S-1.079,6.275.231,8.419A2.539,2.539,0,0,0,3.607,9.49c.539.172.8-1.662.779-2.508S3.611,6.109,3.422,4.4A22.77,22.77,0,0,1,3.607,0Z" transform="matrix(0.999, 0.035, -0.035, 0.999, 10811.35, -18345.203)"/><path class="b" d="M3.606,9.758S-1.079,3.484.231,1.34A2.539,2.539,0,0,1,3.606.268c.539-.172.8,1.662.779,2.508s-.774.874-.963,2.584A22.778,22.778,0,0,0,3.606,9.758Z" transform="translate(10814.838 -18331.209) rotate(-92)"/></g></svg>