<svg xmlns="http://www.w3.org/2000/svg" xmlns:xlink="http://www.w3.org/1999/xlink" width="61.105" height="53.498" viewBox="0 0 61.105 53.498"><defs><style>.a{fill:url(#a);}.b{fill:#fff;}</style><linearGradient id="a" x1="0.203" y1="0.072" x2="0.748" y2="1.096" gradientUnits="objectBoundingBox"><stop offset="0" stop-color="#1a5039"/><stop offset="1" stop-color="#ffc84d"/></linearGradient></defs><g transform="translate(-10355.03 18588.939)"><path class="a" d="M2.607,53.3C1.18,52.9.523,52.843.523,51.045a35.245,35.245,0,0,1,0-4.31,6.051,6.051,0,0,1,.539-1.62A4.753,4.753,0,0,1,3.8,43.955a6.378,6.378,0,0,1,3.056,1.16,2.259,2.259,0,0,0,1.3.479,2.717,2.717,0,0,0,1.389-.479,4.275,4.275,0,0,1,2.268-1.17,4.309,4.309,0,0,1,2.491,1.17,2.707,2.707,0,0,0,1.4.476,3.787,3.787,0,0,0,1.571-.476,4,4,0,0,1,2.346-1.173,4.436,4.436,0,0,1,2.448,1.173,2.35,2.35,0,0,0,1.134.335,3.689,3.689,0,0,0,1.32-.335,3.886,3.886,0,0,1,2.395-1.173,5.464,5.464,0,0,1,2.742,1.173A2.5,2.5,0,0,0,30.9,45.6a2.051,2.051,0,0,0,1.154-.488,4.969,4.969,0,0,1,2.679-1.167,4.731,4.731,0,0,1,2.629,1.167,2.227,2.227,0,0,0,1.154.436,2.4,2.4,0,0,0,1.186-.436,4.252,4.252,0,0,1,2.5-1.167,5.191,5.191,0,0,1,2.7,1.167,2.083,2.083,0,0,0,1.185.538,2.339,2.339,0,0,0,1.24-.538A3.237,3.237,0,0,1,49.356,44a4.338,4.338,0,0,1,2.3,1.117,3.307,3.307,0,0,0,1.531.5,3.085,3.085,0,0,0,1.494-.5,4.576,4.576,0,0,1,2.525-1.15,4.455,4.455,0,0,1,2.5,1.15,3.217,3.217,0,0,1,1.2,2.312c.1,1.535.912,5.605-1.671,5.791-1.641.118-23.465.28-39.537.28C10.461,53.5,3.127,53.444,2.607,53.3ZM9.947,36.8.293,11.286a6.568,6.568,0,0,1-.1-3.332A3.907,3.907,0,0,1,2.236,6.02L27.189,0l9.786,25.659L15.59,36.8a11.3,11.3,0,0,1-2.97,1.132,2.923,2.923,0,0,1-.725.1A2.158,2.158,0,0,1,9.947,36.8Zm36.791,1.173c-2.864-.043-1.68-2.25-1.68-2.25s.435-2.1,1.081-2.475,1.22,1.146,1.22,1.146,2.217,3.579-.569,3.578ZM54.1,34.064s-2.1-.435-2.475-1.081,1.147-1.22,1.147-1.22,3.622-2.243,3.578.621c-.024,1.567-.7,1.922-1.3,1.922A2.279,2.279,0,0,1,54.1,34.064ZM39.593,32.7c-1.994-2.057.4-2.779.4-2.779s1.793-1.178,2.514-.985.052,1.673.052,1.673-.626,2.663-1.9,2.663A1.542,1.542,0,0,1,39.593,32.7Zm7.048-7.048c-1.994-2.057.4-2.779.4-2.779s1.794-1.178,2.515-.985.052,1.672.052,1.672-.626,2.663-1.9,2.663A1.542,1.542,0,0,1,46.641,25.647Zm-5.927-5.263S38.8,19.42,38.6,18.7s1.423-.881,1.423-.881,4.08-1.23,3.3,1.526c-.349,1.227-.9,1.567-1.413,1.567A2.036,2.036,0,0,1,40.714,20.384Zm-1.118-7.6c-2.459-1.47-.329-2.789-.329-2.789s1.427-1.6,2.173-1.6.483,1.6.483,1.6.1,3.1-1.4,3.1A1.844,1.844,0,0,1,39.6,12.782Z" transform="translate(10355.03 -18588.939)"/><path class="b" d="M10377.839-18558.279c-.066,0-2.965.24-2.283,1.076s2.767,0,2.767,0,.2,4.871.724,3.73a5.735,5.735,0,0,0,.527-2.174s2.919,3.23,3.644,3.426-.812-3.312-.812-3.312,9.856,1.291,6.893-.33a50.6,50.6,0,0,0-4.939-2.416s8.231-3.773,6.694-3.951-7.572.791-7.572.791,3.952-5.555,2.326-4.809-5.619,4.436-5.619,4.436-1.339-5.643-1.625-4.436-.636,5.357-.636,5.357-2.811-1.646-2.48-.922S10377.839-18558.279,10377.839-18558.279Z" transform="translate(-10.125 -11.183)"/></g></svg>