<svg xmlns="http://www.w3.org/2000/svg" xmlns:xlink="http://www.w3.org/1999/xlink" width="32.414" height="43.736" viewBox="0 0 32.414 43.736"><defs><style>.a{fill:url(#a);}.b{fill:#fff;}</style><linearGradient id="a" x1="0.5" x2="0.5" y2="1" gradientUnits="objectBoundingBox"><stop offset="0" stop-color="#1a5039"/><stop offset="1" stop-color="#ffc84d"/></linearGradient></defs><path class="a" d="M.007,23.477C-.308,16.048,9.517,9.668,13.494,7.4V5.21c-1.577-1.381-3.507-3.5-1.913-4.537.081-.053.193.05.326.152a.494.494,0,0,0,.5.138c.126-.056-.293-.779.423-.736a6.968,6.968,0,0,0,3.46.736C18.2.888,20.391-.543,20.7.227c.468,1.167-3.137,3.551-4.707,5.084V7.189c2.78,2.5,7.757,2.585,11.587,5.831,2.779,2.354,4.834,8.4,4.834,10.869,0,10.892-4.814,19.847-15.7,19.847S.4,32.784.007,23.477Z" transform="translate(0 0)"/><path class="b" d="M3.963,7.988,3.222,6.369H4.5V7.988Zm5.523-.005L8.665,6.012s-2.931.023-4.337,0c-1.144-.019-1.273-.071-1.282-.089L2.334,7.935h-.57a40.515,40.515,0,0,1-.741-4.127,5.854,5.854,0,0,1,0-1.191.44.44,0,0,1-.109.005.887.887,0,0,1-.869-.6.854.854,0,0,1,.327-1,.813.813,0,0,1,.822-.09.585.585,0,0,1,.194.29s-.2-.009-.408,0a.492.492,0,0,0-.489.442c-.014.5.622.465.622.465h.019a.65.65,0,0,1,.1-.2A3.635,3.635,0,0,1,2.61.732,4.009,4.009,0,0,1,4.481.555l5.718.594L11.329,0a.934.934,0,0,1,.237.55,2.185,2.185,0,0,1-.166.76h1.387a1.8,1.8,0,0,1-.522.7,1.462,1.462,0,0,1-.783.209,1.148,1.148,0,0,0,.379.712,2.642,2.642,0,0,0,.969.394,2.63,2.63,0,0,1-.808,1.766,3.757,3.757,0,0,1-1.933.922V7.983ZM7.4,7.9,6.87,6.369H8.38L7.91,7.9Z" transform="translate(9.995 21.058)"/></svg>