<svg xmlns="http://www.w3.org/2000/svg" xmlns:xlink="http://www.w3.org/1999/xlink" width="52.358" height="32.993" viewBox="0 0 52.358 32.993"><defs><style>.a{fill:url(#a);}</style><linearGradient id="a" x1="0.5" x2="0.5" y2="1" gradientUnits="objectBoundingBox"><stop offset="0" stop-color="#1a5039"/><stop offset="1" stop-color="#ffc84d"/></linearGradient></defs><path class="a" d="M16.66,32.993l-2.887-6.5h4.995v6.5Zm-9.406-.227s-4.078-14.444-2.81-22l.01-.06a2.7,2.7,0,0,1-.879.132,3.487,3.487,0,0,1-3.4-2.44A3.473,3.473,0,0,1,1.456,4.372,3.113,3.113,0,0,1,4.67,4.008a2.327,2.327,0,0,1,.752,1.175,14.373,14.373,0,0,0-1.6,0A1.935,1.935,0,0,0,1.911,6.945C1.867,8.979,4.351,8.821,4.351,8.821l.591-.039A9.284,9.284,0,0,1,12.328,2.53s7.922,1.23,7.766,10.385-7.766,11.351-7.766,11.351L9.4,32.766Zm31.222-.081-4.566-11s-1.8-3.422,2.186-4.962,4.878,4.962,4.878,4.962v11Zm-8.39-.038-2.068-6.153H33.91l-1.834,6.153ZM15.14,24.95a12.52,12.52,0,0,0,2.414-1.594A6.766,6.766,0,0,0,19,21.452H32.115l1.25,3.5Zm26.89-4.769a54.021,54.021,0,0,1-1.045-6.687A27,27,0,0,1,42.006,5.15L47.049,0a5.894,5.894,0,0,1,.81,2.664,6.286,6.286,0,0,1-.81,2.723h4.712a6.237,6.237,0,0,1-1.829,2.93,8.4,8.4,0,0,1-3.544,1.361,7.4,7.4,0,0,0,2.283,2.782,9.478,9.478,0,0,0,3.688,1.236,16.9,16.9,0,0,1-3.3,7.05,15.584,15.584,0,0,1-6.544,3.841S42.422,22.634,42.03,20.182Zm-22.089-.462a9.711,9.711,0,0,0,1.912-6.73c-.2-4.424-1.912-6.464-1.912-6.464l11.746,1.23a35.593,35.593,0,0,0-.431,5.465,63.108,63.108,0,0,0,.431,6.5ZM32.857,8.22l.313-.346,6.908.922a19.627,19.627,0,0,0-.547,3.58,19.038,19.038,0,0,0,.234,3.577,4.021,4.021,0,0,0-3.864-.809,3.866,3.866,0,0,0-3.044,2.847Zm-14-3.155a6.1,6.1,0,0,0-1.69-1.678,11.838,11.838,0,0,0-2.851-1.449L40.771,4.622l-.75,2.633Z"/></svg>