<svg xmlns="http://www.w3.org/2000/svg" xmlns:xlink="http://www.w3.org/1999/xlink" width="51.721" height="33.391" viewBox="0 0 51.721 33.391"><defs><style>.a{fill:url(#a);}</style><linearGradient id="a" x1="0.5" x2="0.5" y2="1" gradientUnits="objectBoundingBox"><stop offset="0" stop-color="#1a5039"/><stop offset="1" stop-color="#ffc84d"/></linearGradient></defs><path class="a" d="M15.976,33.391,13,26.633h5.154v6.758Zm22.266-.02-3.311-8.254s-11.824.1-17.487-.006c-4.608-.08-5.129-.295-5.166-.371L9.4,33.172H7.11S4.664,22.2,4.126,15.906a25.068,25.068,0,0,1-.008-4.977,2.878,2.878,0,0,1-.427.023A3.6,3.6,0,0,1,.186,8.416,3.627,3.627,0,0,1,1.5,4.234a3.2,3.2,0,0,1,3.317-.375A2.435,2.435,0,0,1,5.6,5.08a14.825,14.825,0,0,0-1.648,0A2,2,0,0,0,1.974,6.914C1.929,9.025,4.49,8.861,4.49,8.861l.062,0a2.73,2.73,0,0,1,.41-.844,14.922,14.922,0,0,1,5.564-4.971,15.672,15.672,0,0,1,7.54-.736L41.115,4.791,45.67,0a3.893,3.893,0,0,1,.951,2.287,9.245,9.245,0,0,1-.672,3.178h5.6A7.74,7.74,0,0,1,49.435,8.4a5.691,5.691,0,0,1-3.162.875,4.928,4.928,0,0,0,1.542,2.973,10.252,10.252,0,0,0,3.907,1.633,11.207,11.207,0,0,1-3.264,7.385,14.793,14.793,0,0,1-7.791,3.85v8.26Zm-8.411-.344L27.7,26.633h6.081l-1.895,6.395Z" transform="translate(0)"/></svg>