<svg xmlns="http://www.w3.org/2000/svg" xmlns:xlink="http://www.w3.org/1999/xlink" width="80.291" height="80.291" viewBox="0 0 80.291 80.291"><defs><style>.a,.d{fill:#ffc600;}.a{stroke:#707070;}.b{fill:#00af00;}.c{fill:none;stroke:#009d00;}.e{fill:#0058a6;}.f{clip-path:url(#a);}</style><clipPath id="a"><rect class="a" width="33.066" height="21.836"/></clipPath></defs><g transform="translate(-12500.62 23378.449)"><rect class="b" width="48.902" height="48.902" transform="translate(12506.186 -23338.506) rotate(-45)"/><g transform="translate(12514.855 -23332.693)"><path class="c" d="M304.451,9321a5.411,5.411,0,0,1-.6,1.376,4.541,4.541,0,0,1-1.486,1.1" transform="translate(-302.363 -9320.499)"/><path class="c" d="M308.793,9320.768a8.253,8.253,0,0,1-1.167,2.228,14.372,14.372,0,0,1-2.087,2.123" transform="translate(-303.558 -9320.412)"/><path class="c" d="M308.95,9317.846a22.945,22.945,0,0,1-1.8,3.5,21.278,21.278,0,0,0-1.607,2.672" transform="translate(-301.062 -9316.818)"/><path class="c" d="M318.548,9321a11.281,11.281,0,0,1-.92,1.978c-.467.861-1.5,2.458-2.016,3.571a29.365,29.365,0,0,0-1.627,4.245" transform="translate(-306.735 -9320.499)"/><path class="c" d="M324.215,9320.768a25.193,25.193,0,0,0-3.048,6.088,30.428,30.428,0,0,0-1.2,7.112" transform="translate(-308.986 -9320.412)"/><path class="c" d="M329.162,9321a16.729,16.729,0,0,0-2.69,6.242,50.5,50.5,0,0,0-.526,6.649,19.42,19.42,0,0,1-.61,3.451" transform="translate(-311.003 -9320.499)"/><path class="c" d="M333.307,9321a9.157,9.157,0,0,0-.9,3.435c-.051,1.794.655,4.033.239,6.754-.315,2.064-1.192,3.7-1.674,5.5a22.4,22.4,0,0,0-.657,3.885" transform="translate(-312.877 -9320.499)"/><path class="c" d="M339.364,9321a6.744,6.744,0,0,0-1.2,3.793c-.073,1.988.886,4.993.538,7.89-.26,2.165-.629,5.113-1.016,7.173a32.924,32.924,0,0,1-1.136,4.6" transform="translate(-315.219 -9320.499)"/><path class="c" d="M346.722,9321a13.528,13.528,0,0,0-1.076,5.706c-.014,1.406.662,2.737.837,4.662a75.967,75.967,0,0,1,0,8.308c-.164,6.447.239,8.1.239,8.1" transform="translate(-318.642 -9320.499)"/><path class="c" d="M351.549,9321s-.736,2.5-.276,7.794c.152,1.753,1.178,3.688,1.517,5.839.6,3.8.908,7.872.908,7.872" transform="translate(-320.702 -9320.499)"/><path class="c" d="M356.79,9321a9.062,9.062,0,0,0-.69,5.034c.339,2.454,2.174,5.7,2.483,7.725.632,4.144.982,4.445.982,4.445" transform="translate(-322.54 -9320.499)"/><path class="c" d="M361.151,9321s-.759,1.074.276,4.254c.4,1.229,1.241,1.977,2.207,4.092a44.808,44.808,0,0,1,1.772,4.786" transform="translate(-324.373 -9320.499)"/><path class="c" d="M366.285,9320.2a18.137,18.137,0,0,0,.76,4.11,43.06,43.06,0,0,0,2.9,6.528" transform="translate(-326.404 -9320.197)"/><path class="c" d="M370.966,9321.5c-.046.263,3.357,7.515,3.357,7.515" transform="translate(-328.165 -9320.689)"/><path class="c" d="M376.3,9320.548a10.449,10.449,0,0,1,1.272,2.237,25.7,25.7,0,0,1,1.011,3.665" transform="translate(-330.17 -9320.331)"/><path class="c" d="M380.794,9321.078a32.621,32.621,0,0,0,2.327,2.6" transform="translate(-331.86 -9320.529)"/></g><path class="d" d="M306.666,9296.652a23.94,23.94,0,0,1,2.221-11c2.123-4.335,6.585-8.481,14.694-8.787,17.512-.657,17.034,19.784,17.034,19.784h12.432s-3.257-3.811-6.276-5.08a7.8,7.8,0,0,0-5.8,0,24.754,24.754,0,0,1,5.112-5.471c1.084-.773,2.957-.586,4.138-1.025a3.437,3.437,0,0,0,1.839-1.415s-2.9-4.278-7.356-3.925a13.067,13.067,0,0,0-7.462,3.324,23.12,23.12,0,0,1,.92-6.791,7.3,7.3,0,0,1,3.006-3.713s-.714-2.482-2.829-2.935c-.873-.19-2.922,1.245-3.961,1.627-2.935,1.077-4.951,5.619-4.951,5.619h-.633a10.027,10.027,0,0,0-.644-2.539c-.529-1.3-.839-1.068-1.012-3.587s.828-2.426.322-6.481c-.149-1.2-1.334-2.358-1.747-3.724a31.484,31.484,0,0,1-1.057-5.1,5.8,5.8,0,0,0-2.345,3.862c-.176,1.054.409,2.313.552,3.678a7.674,7.674,0,0,1-.552,3.771c-.571,1.4-2.05,3.123-2.437,4.506a12.482,12.482,0,0,0,0,5.619,12.186,12.186,0,0,1-5.011-2.948c-.944-1.045-1.492-4.03-1.931-5.288-.3-.855-.506,0-.506,0l-5.1,4.689a17.631,17.631,0,0,0,1.563,4.781,10.575,10.575,0,0,0,2.851,3.219,11.732,11.732,0,0,1-5.071,0,14.174,14.174,0,0,1-4.721-2.575l-4.184,3.909a14.248,14.248,0,0,1,1.839,1.977c.851,1.126.7,1.8,2.345,3.08a14.925,14.925,0,0,0,4.23,2.023,35.306,35.306,0,0,0-3.356,1.655,5.663,5.663,0,0,1-2.253,1.194c-.923.157-2.016-.46-3.172-.551a34.511,34.511,0,0,0-4.69,0c-.138.092,3.862,4.618,3.862,4.618Z" transform="translate(12216.126 -32628.533)"/><path class="e" d="M40.145,80.291h0L0,40.145,40.145,0,80.291,40.145,40.145,80.291Zm0-74.115L6.176,40.145,40.145,74.114,74.114,40.145,40.145,6.176Z" transform="translate(12500.62 -23378.449)"/><g class="f" transform="translate(12523.363 -23354.031)"><path class="d" d="M15.424.438A15.278,15.278,0,0,1,30.685,15.953a18.624,18.624,0,0,1-.089,2.19A15.431,15.431,0,0,1,15.265,31.695C7.526,31.695,1,26.641-.066,18.795c-.074-.538-.109-2.106-.109-2.855A15.551,15.551,0,0,1,15.424.438Z" transform="translate(1.17 3.217)"/></g></g></svg>