<svg xmlns="http://www.w3.org/2000/svg" xmlns:xlink="http://www.w3.org/1999/xlink" width="60.674" height="50.131" viewBox="0 0 60.674 50.131"><defs><style>.a{fill:url(#a);}</style><linearGradient id="a" x1="0.432" x2="0.387" y2="1.095" gradientUnits="objectBoundingBox"><stop offset="0" stop-color="#1a5039"/><stop offset="1" stop-color="#ffc84d"/></linearGradient></defs><path class="a" d="M-12601.187,23305.213a7.935,7.935,0,0,1,7.934-7.922,7.934,7.934,0,0,1,7.928,7.922,7.933,7.933,0,0,1-7.928,7.918A7.934,7.934,0,0,1-12601.187,23305.213Zm3.341,0a4.59,4.59,0,0,0,4.593,4.582,4.589,4.589,0,0,0,4.587-4.582,4.59,4.59,0,0,0-4.587-4.586A4.591,4.591,0,0,0-12597.846,23305.213Zm-43.086,3.424a12.433,12.433,0,0,1-3.668-8.846,12.421,12.421,0,0,1,3.668-8.842,12.443,12.443,0,0,1,8.853-3.662,12.457,12.457,0,0,1,8.858,3.662,12.421,12.421,0,0,1,3.668,8.842,12.433,12.433,0,0,1-3.668,8.846,12.471,12.471,0,0,1-8.858,3.662A12.458,12.458,0,0,1-12640.932,23308.637Zm2.177-8.846a6.68,6.68,0,0,0,6.676,6.67,6.681,6.681,0,0,0,6.682-6.67,6.683,6.683,0,0,0-6.682-6.67A6.683,6.683,0,0,0-12638.755,23299.791Zm21.525,4.434a2.79,2.79,0,0,1-.521-1.639,23.554,23.554,0,0,0-.685-6.02c-.743-3.031-2.458-7.168-6.39-9.7a11.089,11.089,0,0,0-6.1-1.795c-4.716,0-8.828,2.7-10.379,3.721-.24.164-.415.275-.509.328a7.157,7.157,0,0,0-2.476,2.486c-.3.455-.532.783-.72.813a.525.525,0,0,1-.1.006.827.827,0,0,1-.673-.375c-.223-.32-.393-.959.069-2.176.772-2.037,6.138-22.279,6.19-22.484-.088-.094-2.13-2.295-1.469-3.383.568-.936,3.131-1.006,3.9-1.006.181,0,.286.006.286.006l17.775.387c.052.006,5.54.531,6.371,2.258s-1.369,4.541-1.393,4.57l1.872,8.057a3.37,3.37,0,0,0,.661,1.428,2.31,2.31,0,0,0,1.258.6l3.294.662-1.24-14.289a.677.677,0,0,1,.164-.449,1.2,1.2,0,0,1,.849-.357c.047,0,.1-.006.146-.006a.9.9,0,0,1,.679.246.869.869,0,0,1,.239.566l1.311,14.873,12.849,2.639c.023,0,.158-.018.357-.018a3.913,3.913,0,0,1,3.282,1.779c1.387,2.082,1.954,6.611,1.96,6.658a19.253,19.253,0,0,1,.731,4.615c-.111,1.3-.937,1.4-1.188,1.4h-.047a9.572,9.572,0,0,0-1.849-1.3,9.83,9.83,0,0,0-4.733-1.287,9.409,9.409,0,0,0-1.146.07c-4.481.586-6.781,5.1-6.8,5.148a4.314,4.314,0,0,0-1.614.621,1.292,1.292,0,0,0-.428,1.088,2.011,2.011,0,0,1-.526,1.27,2.068,2.068,0,0,1-1.234.328c-.123,0-.2-.006-.205-.006h-10.3a3.2,3.2,0,0,1-.41.029A1.635,1.635,0,0,1-12617.229,23304.225Zm-.217-8.775a5.907,5.907,0,0,0,2.486.684c1.241,0,2.721-.689,2.721-3.967a45.252,45.252,0,0,0-.42-5.775l-4.29-3.891-1.129,1.078a.594.594,0,0,1-.8-.117.548.548,0,0,1-.111-.768l.726-.7-3.955.783v-3.152c0-.064.492.484.492.484l.368.158,4.207-.848a1.156,1.156,0,0,1,1,.555l.346-.332a.594.594,0,0,1,.8.117.544.544,0,0,1,.11.766l-1.1,1.059,3.03,2.75c-.875-5.25-2.479-10.7-4.481-13.633-2.142-3.152-6.775-3.492-8.665-3.492-2.68,0-5.2.643-6.132,1.563a15.119,15.119,0,0,0-3.435,8.746,4.039,4.039,0,0,0,.989,2.961,5.681,5.681,0,0,0,2.711,1.381l-.342-1.99a1.29,1.29,0,0,1,1.048-1.508,1.328,1.328,0,0,1,1.557,1.018l.52,3.031c.043.01.086.018.13.025v-4.713a1.6,1.6,0,0,1,.134-.637,1.56,1.56,0,0,1,.363-.516,1.663,1.663,0,0,1,.538-.346,1.655,1.655,0,0,1,.655-.129h3.47a1.655,1.655,0,0,1,.655.129,1.663,1.663,0,0,1,.538.346,1.586,1.586,0,0,1,.363.516,1.6,1.6,0,0,1,.134.637v1.029l-2.123-1.217,2.123,1.99v3.211a.129.129,0,0,0-.047.006l.047.047v1.475l.6.229,2.47.27s1.357.637,1.375,1.633.865,5.82.865,5.82.626,1.334,0,1.926a.807.807,0,0,1-.515.275.57.57,0,0,1-.3-.1C-12617.529,23295.012-12617.446,23295.439-12617.446,23295.449Zm-11.04-23.434a2.716,2.716,0,0,1,2.762-2.656,2.717,2.717,0,0,1,2.767,2.656,2.713,2.713,0,0,1-2.767,2.656A2.712,2.712,0,0,1-12628.486,23272.016Z" transform="translate(12645.999 -23263)"/></svg>