<svg xmlns="http://www.w3.org/2000/svg" xmlns:xlink="http://www.w3.org/1999/xlink" width="69.673" height="52.135" viewBox="0 0 69.673 52.135"><defs><style>.a{fill:url(#a);}</style><linearGradient id="a" x1="0.432" x2="0.387" y2="1.095" gradientUnits="objectBoundingBox"><stop offset="0" stop-color="#1a5039"/><stop offset="1" stop-color="#ffc84d"/></linearGradient></defs><path class="a" d="M-12579.777,23315.135v-28.619a1.726,1.726,0,0,1,1.726-1.727,1.726,1.726,0,0,1,1.727,1.727v28.619Zm-19.865-8.238a8.228,8.228,0,0,1,8.2-8.234,8.23,8.23,0,0,1,8.21,8.234,8.231,8.231,0,0,1-8.21,8.238A8.229,8.229,0,0,1-12599.643,23306.9Zm3.458,0a4.764,4.764,0,0,0,4.745,4.768,4.765,4.765,0,0,0,4.751-4.768,4.765,4.765,0,0,0-4.751-4.77A4.764,4.764,0,0,0-12596.185,23306.9Zm-44.575,3.563a12.948,12.948,0,0,1-3.792-9.2,12.926,12.926,0,0,1,3.792-9.193,12.859,12.859,0,0,1,9.163-3.809,12.837,12.837,0,0,1,9.157,3.809,12.91,12.91,0,0,1,3.8,9.193,12.932,12.932,0,0,1-3.8,9.2,12.837,12.837,0,0,1-9.157,3.809A12.859,12.859,0,0,1-12640.76,23310.459Zm2.252-9.2a6.929,6.929,0,0,0,6.911,6.934,6.929,6.929,0,0,0,6.91-6.934,6.933,6.933,0,0,0-6.91-6.936A6.933,6.933,0,0,0-12638.508,23301.262Zm22.271,4.609a2.911,2.911,0,0,1-.538-1.7,24.529,24.529,0,0,0-.708-6.268c-.767-3.148-2.54-7.449-6.612-10.088a11.417,11.417,0,0,0-6.308-1.861c-4.874,0-9.128,2.814-10.731,3.875-.252.164-.433.285-.532.332a7.436,7.436,0,0,0-2.558,2.588c-.315.473-.55.813-.742.842a.577.577,0,0,1-.1.012.866.866,0,0,1-.7-.393c-.229-.332-.4-.994.076-2.264.8-2.125,6.349-23.166,6.4-23.377-.088-.1-2.206-2.393-1.521-3.521.591-.967,3.241-1.047,4.037-1.047.188,0,.3.006.3.006l18.379.4c.059.006,5.734.551,6.594,2.354s-1.416,4.721-1.439,4.75l1.938,8.379a3.532,3.532,0,0,0,.685,1.486,2.364,2.364,0,0,0,1.3.615l3.405.689-1.275-14.855a.716.716,0,0,1,.17-.475,1.218,1.218,0,0,1,.865-.369c.059,0,.105-.006.158-.006a.961.961,0,0,1,.7.252.942.942,0,0,1,.252.6l1.352,15.459,13.294,2.75a2.208,2.208,0,0,1,.369-.023,4.032,4.032,0,0,1,3.394,1.855c1.434,2.164,2.024,6.875,2.03,6.922a20.45,20.45,0,0,1,.749,4.8c-.111,1.348-.966,1.457-1.223,1.457a.162.162,0,0,1-.047-.006,10.6,10.6,0,0,0-6.812-2.691,8.926,8.926,0,0,0-1.187.076,8.924,8.924,0,0,0-5.277,2.908,11.772,11.772,0,0,0-1.762,2.441,4.636,4.636,0,0,0-1.668.643,1.367,1.367,0,0,0-.444,1.135,2.087,2.087,0,0,1-.544,1.322,2.164,2.164,0,0,1-1.275.34c-.123,0-.211-.006-.211-.006h-10.661a3.19,3.19,0,0,1-.428.029A1.678,1.678,0,0,1-12616.237,23305.871Zm-15.529-36.863a15.451,15.451,0,0,0-3.043,5.875c-.479,1.674-1.053,4.729.51,6.3,1.193,1.2,2.931,1.51,4.944,1.877,2.381.428,5.084.914,7.39,3.084a19.063,19.063,0,0,1,4.336,6.781,24.828,24.828,0,0,1,1.17,3.822,6.106,6.106,0,0,0,2.569.707c1.287,0,2.82-.713,2.82-4.119,0-6.8-2.212-17.635-5.39-22.322-2.217-3.271-7.01-3.623-8.964-3.623C-12628.2,23267.387-12630.807,23268.055-12631.767,23269.008Z" transform="translate(12645.998 -23263)"/></svg>